<svg id="Group_90" data-name="Group 90" xmlns="http://www.w3.org/2000/svg" width="142.038" height="115.08" viewBox="0 0 142.038 115.08">
  <g id="Group_88" data-name="Group 88" transform="translate(37.501)">
    <path id="Path_10554" data-name="Path 10554" d="M49.614,44.644h0A13.429,13.429,0,0,1,36.19,31.22H49.614Z" transform="translate(4.039 35.835)" fill="#1e1e1c"/>
    <path id="Path_10555" data-name="Path 10555" d="M17.46,0V67.076H57.689V53.653H30.862V13.424h40.25V67.076h13.4V0Z" transform="translate(-17.46)" fill="#1e1e1c"/>
  </g>
  <g id="Group_89" data-name="Group 89" transform="translate(0 84.152)">
    <path id="Path_10556" data-name="Path 10556" d="M13.51,44.106a4.124,4.124,0,0,0-.3-.322,5.82,5.82,0,0,0-1.31-.9,7.649,7.649,0,0,0-1.912-.644A11.49,11.49,0,0,0,7.41,41.98a7.723,7.723,0,0,0-3.544.73,6.068,6.068,0,0,0-2.3,1.976,8.027,8.027,0,0,0-1.2,2.835A13.464,13.464,0,0,0,0,50.786a16.09,16.09,0,0,0,.322,3.286A7.422,7.422,0,0,0,1.5,56.864,5.9,5.9,0,0,0,3.78,58.8a7.89,7.89,0,0,0,3.544.709,10.926,10.926,0,0,0,2.191-.193,7.477,7.477,0,0,0,1.654-.537,5.809,5.809,0,0,0,1.2-.773c.021-.021.064-.043.086-.086v4.9a4.079,4.079,0,0,0,4.081,4.081h.021v-24.7H14.09ZM12.5,50.786a13.4,13.4,0,0,1-.15,2.169,4.476,4.476,0,0,1-.58,1.611,2.736,2.736,0,0,1-1.224,1.009,5.2,5.2,0,0,1-2.191.387A5.257,5.257,0,0,1,6.229,55.6a3.055,3.055,0,0,1-1.246-1.009A4.177,4.177,0,0,1,4.36,53a13.34,13.34,0,0,1-.172-2.191,14.3,14.3,0,0,1,.172-2.234,4.116,4.116,0,0,1,.623-1.632,3.214,3.214,0,0,1,1.224-1.031,4.783,4.783,0,0,1,2.1-.387,5.485,5.485,0,0,1,2.169.365,2.757,2.757,0,0,1,1.224,1.031,4.218,4.218,0,0,1,.623,1.654A13.615,13.615,0,0,1,12.5,50.786Z" transform="translate(0 -35.966)" fill="#1e1e1c"/>
    <path id="Path_10557" data-name="Path 10557" d="M23.205,44.1a5.542,5.542,0,0,0-2.47-1.589,13.522,13.522,0,0,0-4.124-.537,12.511,12.511,0,0,0-3.673.473,5.847,5.847,0,0,0-2.32,1.375,4.679,4.679,0,0,0-1.2,2.062,9.041,9.041,0,0,0-.322,2.47v.365l4.038-.043v-.365a4.52,4.52,0,0,1,.172-1.267,2.049,2.049,0,0,1,.515-.859,2.572,2.572,0,0,1,1.052-.558,6.612,6.612,0,0,1,1.783-.215,6.763,6.763,0,0,1,1.933.236,2.78,2.78,0,0,1,1.138.644,2.534,2.534,0,0,1,.6,1.009,5.873,5.873,0,0,1,.215,1.16l-4.811.473a11.777,11.777,0,0,0-5.327,1.5,4.118,4.118,0,0,0-1.8,3.673,5.12,5.12,0,0,0,.537,2.427A4.8,4.8,0,0,0,10.6,58.208a6.647,6.647,0,0,0,2.126.967,9.8,9.8,0,0,0,2.556.322,10.327,10.327,0,0,0,2.406-.258,10.189,10.189,0,0,0,1.933-.644,6.073,6.073,0,0,0,1.461-.924,4.466,4.466,0,0,0,.451-.451l.58,2.04H24.6V49.595a16.9,16.9,0,0,0-.258-3.071A5.286,5.286,0,0,0,23.205,44.1ZM20.52,51.807v.107a4.07,4.07,0,0,1-1.138,3.093,4.518,4.518,0,0,1-3.265,1.117,4.749,4.749,0,0,1-2.556-.558,1.627,1.627,0,0,1-.773-1.439,1.233,1.233,0,0,1,.644-1.138,8.245,8.245,0,0,1,2.835-.709Z" transform="translate(9.871 -35.978)" fill="#1e1e1c"/>
    <rect id="Rectangle_78" data-name="Rectangle 78" width="4.145" height="23.325" transform="translate(36.663)" fill="#1e1e1c"/>
    <path id="Path_10558" data-name="Path 10558" d="M34.515,44.1a5.542,5.542,0,0,0-2.47-1.589,13.522,13.522,0,0,0-4.124-.537,12.511,12.511,0,0,0-3.673.473,5.847,5.847,0,0,0-2.32,1.375,4.679,4.679,0,0,0-1.2,2.062,9.041,9.041,0,0,0-.322,2.47v.365l4.038-.043v-.365a4.521,4.521,0,0,1,.172-1.267,2.049,2.049,0,0,1,.515-.859,2.572,2.572,0,0,1,1.052-.558,6.612,6.612,0,0,1,1.783-.215,6.763,6.763,0,0,1,1.933.236,2.78,2.78,0,0,1,1.138.644,2.534,2.534,0,0,1,.6,1.009,5.873,5.873,0,0,1,.215,1.16l-4.811.473a11.777,11.777,0,0,0-5.327,1.5,4.118,4.118,0,0,0-1.8,3.673,5.12,5.12,0,0,0,.537,2.427,4.8,4.8,0,0,0,1.461,1.675,6.647,6.647,0,0,0,2.126.967,9.8,9.8,0,0,0,2.556.322A10.327,10.327,0,0,0,29,59.238a10.189,10.189,0,0,0,1.933-.644,6.073,6.073,0,0,0,1.461-.924,4.466,4.466,0,0,0,.451-.451l.58,2.04h2.491V49.595a16.9,16.9,0,0,0-.258-3.071A5.286,5.286,0,0,0,34.515,44.1ZM31.83,51.807v.107a4.07,4.07,0,0,1-1.138,3.093,4.518,4.518,0,0,1-3.265,1.117,4.749,4.749,0,0,1-2.556-.558,1.627,1.627,0,0,1-.773-1.439,1.233,1.233,0,0,1,.644-1.138,8.245,8.245,0,0,1,2.835-.709Z" transform="translate(22.853 -35.978)" fill="#1e1e1c"/>
    <path id="Path_10559" data-name="Path 10559" d="M42.843,56.974a12.7,12.7,0,0,0-2.556-.73c-.9-.15-1.8-.3-2.685-.408q-2.706-.354-3.8-.58c-.515-.107-.838-.279-.838-.451a.462.462,0,0,1,.129-.279s.129-.15.881-.258l.967.129c.3.043.623.064.967.086.322.021.623.021.9.021a14.432,14.432,0,0,0,3.823-.43,5.9,5.9,0,0,0,2.427-1.267,4.646,4.646,0,0,0,1.224-1.976A8.619,8.619,0,0,0,44.6,48.4a5.029,5.029,0,0,0-.58-2.534,4.159,4.159,0,0,0-.773-.988l1.826-.537V42.09h-7.56a14.7,14.7,0,0,0-4.124.473,6.714,6.714,0,0,0-2.6,1.332,4.253,4.253,0,0,0-1.31,2.062,8.833,8.833,0,0,0-.344,2.427A5.95,5.95,0,0,0,29.7,50.81a4.074,4.074,0,0,0,1.375,1.611,4.528,4.528,0,0,0-1.353.752,2.367,2.367,0,0,0-.9,1.955,2.5,2.5,0,0,0,.881,2A5.954,5.954,0,0,0,31.782,58.2a15.769,15.769,0,0,0,2.706.58c.967.129,1.912.279,2.857.43.6.107,1.16.215,1.7.3a7.917,7.917,0,0,1,1.289.344,1.9,1.9,0,0,1,.773.473.712.712,0,0,1,.215.537,1.6,1.6,0,0,1-.129.6,1.125,1.125,0,0,1-.494.515,4.515,4.515,0,0,1-1.246.451,10.285,10.285,0,0,1-2.212.193A11.345,11.345,0,0,1,34.9,62.43a3.168,3.168,0,0,1-1.267-.537,1.592,1.592,0,0,1-.558-.795,4.82,4.82,0,0,1-.215-1.181l-.021-.322H28.56v.365a7.888,7.888,0,0,0,.387,2.556,4.185,4.185,0,0,0,1.439,1.976,6.945,6.945,0,0,0,2.663,1.181,18.278,18.278,0,0,0,4.124.387,15.068,15.068,0,0,0,4.038-.451,7.575,7.575,0,0,0,2.577-1.2,4.6,4.6,0,0,0,1.4-1.74,5.2,5.2,0,0,0,.387-1.955,3.346,3.346,0,0,0-.795-2.32A4.682,4.682,0,0,0,42.843,56.974ZM36.829,45.612a6.374,6.374,0,0,1,1.869.215,2.349,2.349,0,0,1,1.031.558,1.787,1.787,0,0,1,.473.795A4.433,4.433,0,0,1,40.33,48.3a4.769,4.769,0,0,1-.15,1.267,1.785,1.785,0,0,1-.494.881,2.5,2.5,0,0,1-1.031.58A7.42,7.42,0,0,1,35.025,51a2.385,2.385,0,0,1-1.031-.6,2.09,2.09,0,0,1-.494-.881,4.5,4.5,0,0,1-.15-1.246,3.843,3.843,0,0,1,.15-1.138,1.719,1.719,0,0,1,.494-.795,2.46,2.46,0,0,1,1.031-.537A7.012,7.012,0,0,1,36.829,45.612Z" transform="translate(32.782 -35.84)" fill="#1e1e1c"/>
    <path id="Path_10560" data-name="Path 10560" d="M46.2,41.98h-.9a8.458,8.458,0,0,0-2.212.258,6.994,6.994,0,0,0-1.611.644,4.777,4.777,0,0,0-1.117.859,3.214,3.214,0,0,0-.236.279l-.644-1.8H37.03v17.1h4.145V49.884a8.974,8.974,0,0,1,.15-1.761,3.158,3.158,0,0,1,.537-1.289,2.541,2.541,0,0,1,1.1-.816,5.366,5.366,0,0,1,1.933-.3,2.335,2.335,0,0,1,.387.021,4.185,4.185,0,0,0,.537.043h.365v-3.8Z" transform="translate(42.504 -35.966)" fill="#1e1e1c"/>
    <path id="Path_10561" data-name="Path 10561" d="M56.428,44.708a6.874,6.874,0,0,0-2.62-2,10.018,10.018,0,0,0-4.1-.73,10.5,10.5,0,0,0-4.124.73,6.79,6.79,0,0,0-2.642,2,7.442,7.442,0,0,0-1.353,2.814,13.235,13.235,0,0,0-.387,3.222,13.541,13.541,0,0,0,.387,3.243A7.291,7.291,0,0,0,42.94,56.8a6.879,6.879,0,0,0,2.62,1.976,10.018,10.018,0,0,0,4.1.73,10.313,10.313,0,0,0,4.1-.73A7.129,7.129,0,0,0,56.407,56.8a6.988,6.988,0,0,0,1.375-2.835,13.411,13.411,0,0,0,.387-3.243,13.235,13.235,0,0,0-.387-3.222A7.506,7.506,0,0,0,56.428,44.708ZM51.853,55.619a5.27,5.27,0,0,1-2.191.387,4.788,4.788,0,0,1-2.148-.408,3.164,3.164,0,0,1-1.267-1.1,4.168,4.168,0,0,1-.644-1.654,11.557,11.557,0,0,1,0-4.21,4.926,4.926,0,0,1,.644-1.654,3.338,3.338,0,0,1,1.267-1.1,4.764,4.764,0,0,1,2.169-.408,4.925,4.925,0,0,1,2.191.408,3.408,3.408,0,0,1,1.289,1.1,4.49,4.49,0,0,1,.623,1.654,13.257,13.257,0,0,1,.172,2.1,11.412,11.412,0,0,1-.193,2.148,4.514,4.514,0,0,1-.644,1.654A3.118,3.118,0,0,1,51.853,55.619Z" transform="translate(47.29 -35.966)" fill="#1e1e1c"/>
    <path id="Path_10562" data-name="Path 10562" d="M61.51,51.53a10.188,10.188,0,0,1-.172,1.912,3.317,3.317,0,0,1-.558,1.31,2.276,2.276,0,0,1-1.117.773,5.753,5.753,0,0,1-1.976.279,6.259,6.259,0,0,1-2-.258,2.333,2.333,0,0,1-1.074-.73,2.649,2.649,0,0,1-.515-1.224,12.052,12.052,0,0,1-.129-1.89V42.1H49.89v9.343a18.223,18.223,0,0,0,.258,3.2,6.108,6.108,0,0,0,1.009,2.534,5.008,5.008,0,0,0,2.126,1.654,8.639,8.639,0,0,0,3.415.58,10.385,10.385,0,0,0,2.47-.258,9.265,9.265,0,0,0,1.847-.644,4.905,4.905,0,0,0,1.289-.9,3.738,3.738,0,0,0,.279-.322l.558,1.89h2.513V42.08H61.51Z" transform="translate(57.265 -35.851)" fill="#1e1e1c"/>
    <path id="Path_10563" data-name="Path 10563" d="M74.646,47.511a8.168,8.168,0,0,0-1.181-2.835A6.189,6.189,0,0,0,71.188,42.7a7.847,7.847,0,0,0-3.522-.73,11.625,11.625,0,0,0-2.62.258,9.471,9.471,0,0,0-1.912.644,5.792,5.792,0,0,0-1.31.881l-.322.322-.58-1.89H58.43V66.863h0a4.079,4.079,0,0,0,4.081-4.081V57.928c.043.021.064.064.107.086a5.043,5.043,0,0,0,1.2.773,7.684,7.684,0,0,0,1.675.537,11.305,11.305,0,0,0,2.212.193,7.856,7.856,0,0,0,3.522-.709,5.832,5.832,0,0,0,2.255-1.933,7.755,7.755,0,0,0,1.16-2.792,16.244,16.244,0,0,0,.322-3.286A14.967,14.967,0,0,0,74.646,47.511Zm-3.8,3.286a11.391,11.391,0,0,1-.193,2.191,4.144,4.144,0,0,1-.623,1.611,2.921,2.921,0,0,1-1.246,1.009,5.444,5.444,0,0,1-2.148.365,5.27,5.27,0,0,1-2.191-.387,2.645,2.645,0,0,1-1.224-1.031,3.8,3.8,0,0,1-.58-1.611,13.4,13.4,0,0,1-.15-2.169,12.092,12.092,0,0,1,.193-2.255,4.466,4.466,0,0,1,.623-1.632,2.92,2.92,0,0,1,1.246-1.009,5.6,5.6,0,0,1,2.191-.365,4.913,4.913,0,0,1,2.1.387,3.061,3.061,0,0,1,1.224,1.031,4.115,4.115,0,0,1,.623,1.632A17.412,17.412,0,0,1,70.844,50.8Z" transform="translate(67.067 -35.978)" fill="#1e1e1c"/>
  </g>
</svg>
